<svg width="120" height="85" viewBox="0 0 120 85" fill="none" xmlns="http://www.w3.org/2000/svg">
<path d="M20.2 80H2C0.89543 80 0 80.8954 0 82C0 83.1046 0.89543 84 2 84H74C74.112 84 74.222 84.014 74.336 84.014C74.45 84.014 74.512 84 74.6 84H118C119.105 84 120 83.1046 120 82C120 80.8954 119.105 80 118 80H91.846C97.1399 77.5615 101.958 74.2004 106.074 70.074C120.782 55.364 124.028 34.176 114.648 20.116C114.578 19.964 114.488 19.8221 114.38 19.694C114.368 19.682 114.352 19.678 114.338 19.666C113.359 18.2225 112.253 16.8698 111.032 15.624C100.368 4.98 82.814 3.684 67.358 12.398C66.7228 12.7422 66.3226 13.4023 66.3112 14.1247C66.2998 14.8471 66.6788 15.5195 67.3028 15.8837C67.9268 16.2479 68.6986 16.2472 69.322 15.882C83.2 8.054 98.826 9.086 108.2 18.448C108.929 19.1797 109.612 19.9551 110.246 20.77C107.286 23.0654 103.676 24.3673 99.932 24.49C88.7801 25.0161 79.8581 33.9381 79.332 45.09C78.824 49.228 78.384 52.804 74.152 57.028C73.3435 57.8352 72.4699 58.5744 71.54 59.238C70.6425 59.882 70.437 61.1315 71.081 62.029C71.725 62.9265 72.9745 63.132 73.872 62.488C74.9857 61.6965 76.0319 60.8141 77 59.85C80.8481 56.0674 83.109 50.9597 83.322 45.568C83.83 41.428 84.27 37.854 88.502 33.628C92.734 29.402 96.302 28.968 100.432 28.46C104.779 28.2471 108.965 26.7454 112.456 24.146C119.372 36.618 115.964 54.528 103.256 67.24C95.9526 74.8093 86.0749 79.3627 75.576 80H74.458C68.2384 80.1195 62.1532 78.1834 57.146 74.492C65.5772 65.7992 70.2022 54.1083 70 42C70 21.162 57.274 3.868 40.668 0.599996C40.5264 0.550637 40.3793 0.518408 40.23 0.503996C40.214 0.503996 40.2 0.503996 40.186 0.503996C38.4757 0.182498 36.7402 0.013833 35 -3.8147e-06C15.702 -3.8147e-06 0 18.834 0 42C0 58.8 8.284 73.284 20.2 80V80ZM58.296 80H49.81C51.3004 79.1662 52.7252 78.2201 54.072 77.17C55.3931 78.2322 56.8029 79.179 58.286 80H58.296ZM66 42C66 62.954 52.094 80 35 80C33.9709 79.996 32.943 79.9293 31.922 79.8C32.3907 76.0842 34.0217 72.6115 36.582 69.878C44.0903 61.6241 44.0903 49.0139 36.582 40.76C34 37.476 31.8 34.636 31.8 28.656C31.8 22.676 34.014 19.856 36.58 16.572C39.5049 13.3465 41.4023 9.32265 42.03 5.014C55.738 8.928 66 24 66 42ZM35 4C36.0291 4.00396 37.057 4.07075 38.078 4.2C37.6093 7.91584 35.9783 11.3885 33.418 14.122C25.9097 22.3759 25.9097 34.9861 33.418 43.24C35.986 46.526 38.204 49.366 38.204 55.348C38.204 61.33 35.99 64.148 33.424 67.432C30.4996 70.657 28.6022 74.6801 27.974 78.988C14.262 75.06 4 59.984 4 42C4 21.042 17.906 4 35 4V4Z" fill="#009688"/>
<path d="M9.99997 44C11.1045 44 12 43.1046 12 42C12 28.462 19.016 16.544 29.058 13.02C29.743 12.7917 30.2517 12.212 30.3891 11.5031C30.5265 10.7943 30.2711 10.0664 29.721 9.5988C29.1709 9.13115 28.4114 8.99631 27.734 9.246C16.116 13.316 7.99997 26.786 7.99997 42C7.99997 43.1046 8.8954 44 9.99997 44V44Z" fill="#009688"/>
<path d="M72.376 74.056C72.376 75.1606 73.2714 76.056 74.376 76.056C84.2474 75.7385 93.5993 71.557 100.418 64.412C101.119 63.6214 101.084 62.4221 100.338 61.6737C99.5923 60.9253 98.3931 60.886 97.6 61.584C91.5319 67.98 83.1968 71.74 74.386 72.056C73.8538 72.0533 73.3425 72.2629 72.9653 72.6382C72.5881 73.0136 72.376 73.5238 72.376 74.056Z" fill="#009688"/>
</svg>
