<svg width="120" height="120" viewBox="0 0 120 120" fill="none" xmlns="http://www.w3.org/2000/svg">
<g clip-path="url(#clip0_146_46)">
<path d="M20.2 98H2C0.89543 98 0 98.8954 0 100C0 101.105 0.89543 102 2 102H74C74.112 102 74.222 102.014 74.336 102.014C74.45 102.014 74.512 102 74.6 102H118C119.105 102 120 101.105 120 100C120 98.8954 119.105 98 118 98H91.846C97.1399 95.5615 101.958 92.2004 106.074 88.074C120.782 73.364 124.028 52.176 114.648 38.116C114.578 37.964 114.488 37.8221 114.38 37.694C114.368 37.682 114.352 37.678 114.338 37.666C113.359 36.2225 112.253 34.8698 111.032 33.624C100.368 22.98 82.814 21.684 67.358 30.398C66.7228 30.7422 66.3226 31.4023 66.3112 32.1247C66.2998 32.8471 66.6788 33.5195 67.3028 33.8837C67.9268 34.2479 68.6986 34.2472 69.322 33.882C83.2 26.054 98.826 27.086 108.2 36.448C108.929 37.1797 109.612 37.9551 110.246 38.77C107.286 41.0654 103.676 42.3673 99.932 42.49C88.7801 43.0161 79.8581 51.9381 79.332 63.09C78.824 67.228 78.384 70.804 74.152 75.028C73.3435 75.8352 72.4699 76.5744 71.54 77.238C70.6425 77.882 70.437 79.1315 71.081 80.029C71.725 80.9265 72.9745 81.132 73.872 80.488C74.9857 79.6965 76.0319 78.8141 77 77.85C80.8481 74.0674 83.109 68.9597 83.322 63.568C83.83 59.428 84.27 55.854 88.502 51.628C92.734 47.402 96.302 46.968 100.432 46.46C104.779 46.2471 108.965 44.7454 112.456 42.146C119.372 54.618 115.964 72.528 103.256 85.24C95.9526 92.8093 86.0749 97.3627 75.576 98H74.458C68.2384 98.1195 62.1532 96.1834 57.146 92.492C65.5772 83.7992 70.2022 72.1083 70 60C70 39.162 57.274 21.868 40.668 18.6C40.5264 18.5506 40.3793 18.5184 40.23 18.504C40.214 18.504 40.2 18.504 40.186 18.504C38.4757 18.1825 36.7402 18.0138 35 18C15.702 18 0 36.834 0 60C0 76.8 8.284 91.284 20.2 98ZM58.296 98H49.81C51.3004 97.1662 52.7252 96.2201 54.072 95.17C55.3931 96.2322 56.8029 97.179 58.286 98H58.296ZM66 60C66 80.954 52.094 98 35 98C33.9709 97.996 32.943 97.9293 31.922 97.8C32.3907 94.0842 34.0217 90.6115 36.582 87.878C44.0903 79.6241 44.0903 67.0139 36.582 58.76C34 55.476 31.8 52.636 31.8 46.656C31.8 40.676 34.014 37.856 36.58 34.572C39.5049 31.3465 41.4023 27.3226 42.03 23.014C55.738 26.928 66 42 66 60ZM35 22C36.0291 22.004 37.057 22.0708 38.078 22.2C37.6093 25.9158 35.9783 29.3885 33.418 32.122C25.9097 40.3759 25.9097 52.9861 33.418 61.24C35.986 64.526 38.204 67.366 38.204 73.348C38.204 79.33 35.99 82.148 33.424 85.432C30.4996 88.657 28.6022 92.6801 27.974 96.988C14.262 93.06 4 77.984 4 60C4 39.042 17.906 22 35 22Z" fill="#009688"/>
<path d="M9.99997 62C11.1045 62 12 61.1046 12 60C12 46.462 19.016 34.544 29.058 31.02C29.743 30.7917 30.2517 30.212 30.3891 29.5031C30.5265 28.7943 30.2711 28.0664 29.721 27.5988C29.1709 27.1311 28.4114 26.9963 27.734 27.246C16.116 31.316 7.99997 44.786 7.99997 60C7.99997 61.1046 8.8954 62 9.99997 62Z" fill="#009688"/>
<path d="M72.376 92.056C72.376 93.1606 73.2714 94.056 74.376 94.056C84.2474 93.7385 93.5993 89.557 100.418 82.412C101.119 81.6214 101.084 80.4221 100.338 79.6737C99.5923 78.9253 98.3931 78.886 97.6 79.584C91.5319 85.98 83.1968 89.74 74.386 90.056C73.8538 90.0533 73.3425 90.2629 72.9653 90.6382C72.5881 91.0136 72.376 91.5238 72.376 92.056Z" fill="#009688"/>
</g>
<defs>
<clipPath id="clip0_146_46">
<rect width="120" height="120" fill="white"/>
</clipPath>
</defs>
</svg>
