<svg width="92" height="120" viewBox="0 0 92 120" fill="none" xmlns="http://www.w3.org/2000/svg">
<path d="M45.522 70.554C36.466 61.498 23.38 59.8 16.346 66.788C13.4408 69.779 11.8727 73.8203 12 77.988C12.2554 84.7891 15.1739 91.2173 20.126 95.886C24.8417 100.824 31.3021 103.721 38.126 103.958C42.2782 104.074 46.304 102.523 49.306 99.652C52.2104 96.6606 53.7779 92.6194 53.65 88.452C53.394 81.6506 50.4748 75.2224 45.522 70.554ZM22.954 93.058C18.777 89.1186 16.2852 83.7165 16 77.982C15.9825 76.4084 16.2494 74.8446 16.788 73.366C18.534 74.4004 20.4917 75.0261 22.514 75.196C27.0058 75.4295 30.5986 79.0128 30.844 83.504C31.3468 89.7533 36.3156 94.7111 42.566 95.2C44.041 95.2979 45.4742 95.7316 46.756 96.468C46.656 96.578 46.582 96.71 46.478 96.814C41.01 102.25 30.456 100.56 22.954 93.058ZM48.858 93.074C47.1124 92.0389 45.1545 91.4139 43.132 91.246C38.6387 91.0134 35.0445 87.4287 34.8 82.936C34.3008 76.6851 29.3317 71.7245 23.08 71.236C21.605 71.1367 20.172 70.7023 18.89 69.966C18.99 69.856 19.062 69.724 19.168 69.62C21.4206 67.4808 24.4372 66.3346 27.542 66.438C33.3035 66.7019 38.737 69.1939 42.696 73.388C46.8705 77.3269 49.3602 82.7275 49.644 88.46C49.6622 90.0328 49.3959 91.5959 48.858 93.074Z" fill="#009688"/>
<path d="M43.1 64C43.5661 64.2546 44.1144 64.3134 44.6239 64.1633C45.1335 64.0133 45.5623 63.6667 45.816 63.2C49.016 57.364 53.902 54 59.216 53.99C59.5347 53.99 59.8587 54.004 60.188 54.032C59.7833 55.9282 58.8968 57.6881 57.614 59.142C52.9069 64.6189 52.9069 72.7131 57.614 78.19C59.3955 80.1375 60.3713 82.6887 60.344 85.328C60.3823 87.958 59.4069 90.5018 57.62 92.432C55.3954 94.9684 54.1412 98.2108 54.08 101.584C54.0543 102.53 54.6953 103.365 55.616 103.584C56.7952 103.865 58.0039 104.003 59.216 103.996C70.696 103.976 80.016 91.862 79.998 76.996C80.018 63.822 72.782 52.636 62.798 50.396C61.6167 50.1335 60.4102 50.0007 59.2 50C52.482 50.02 46.164 54.24 42.3 61.286C42.046 61.7519 41.9876 62.2997 42.1376 62.8088C42.2877 63.3178 42.6339 63.7463 43.1 64ZM64.078 55C71.022 57.91 76.016 66.886 76 77C76.016 89.664 68.486 99.982 59.214 100C58.884 100 58.564 99.988 58.25 99.964C58.6522 98.0645 59.5389 96.3014 60.824 94.846C65.5294 89.3684 65.5294 81.2756 60.824 75.798C59.0404 73.8517 58.0637 71.2999 58.092 68.66C58.0537 66.03 59.0292 63.4862 60.816 61.556C62.4242 59.671 63.5444 57.4197 64.078 55Z" fill="#009688"/>
<path d="M1.832 61.21C0.986045 65.9638 0.662122 70.7958 0.865998 75.62C1.22838 90.265 8.51289 103.871 20.5 112.292C28.0485 117.331 36.924 120.014 46 120C65.1687 119.922 82.3071 108.039 89.104 90.116C90.9973 84.2537 91.8687 78.1096 91.68 71.952C91.3348 63.1967 89.226 54.601 85.48 46.68C80.0451 35.2671 73.2903 24.5311 65.354 14.692C64.172 13.172 62.976 11.502 61.754 9.804C59.6423 6.72687 57.3517 3.77645 54.894 0.967999C54.1265 0.130458 52.9517 -0.201702 51.8593 0.109943C50.7668 0.421587 49.9441 1.32357 49.734 2.44C49.534 3.482 49.334 4.626 49.112 5.84C47.712 13.64 44.874 29.856 40.112 29.618C37.95 29.498 37.238 26.152 36.58 22.062C36.3237 20.4444 36.1561 18.8139 36.078 17.178C36.0164 15.8341 35.0649 14.6968 33.7529 14.399C32.441 14.1013 31.0917 14.7163 30.456 15.902C27.5704 21.4649 25.9608 27.601 25.744 33.864C25.6137 36.6528 25.704 39.4475 26.014 42.222C26.4962 44.6502 26.1571 47.1698 25.05 49.384C24.7998 49.7234 24.4144 49.9373 23.994 49.97C23.5498 50.037 23.0985 49.9054 22.76 49.61C20.684 47.908 20.16 41.87 19.976 39.892C19.7993 37.6847 19.7519 35.4689 19.834 33.256C19.8867 31.9277 19.0589 30.723 17.8 30.296C16.5579 29.8724 15.185 30.3148 14.424 31.384C8.12266 40.2526 3.83346 50.39 1.856 61.088C1.846 61.128 1.838 61.17 1.832 61.21ZM15.8 36.464C15.82 37.7813 15.8813 39.0393 15.984 40.238C16.408 45.038 17.244 50.26 20.216 52.7C21.3862 53.673 22.9047 54.1227 24.416 53.944C25.8919 53.7955 27.2436 53.0524 28.16 51.886C30.492 48.984 30.21 43.852 29.982 41.78C29.6956 39.2159 29.612 36.6332 29.732 34.056C29.9088 29.6468 30.8122 25.2969 32.406 21.182C32.472 21.708 32.546 22.232 32.632 22.756C33.308 26.956 34.328 33.302 39.882 33.61C48.03 34.044 50.834 18.81 53.042 6.548C53.1233 6.08933 53.204 5.64267 53.284 5.208C55.058 7.334 56.804 9.766 58.502 12.136C59.75 13.876 60.98 15.59 62.192 17.148C69.9353 26.7452 76.5276 37.2166 81.834 48.348C85.3566 55.7814 87.3436 63.8489 87.676 72.068C87.8541 77.7383 87.0606 83.3973 85.33 88.8C79.1045 105.126 63.4727 115.937 46 116C37.7142 116.014 29.6111 113.565 22.72 108.964C11.7913 101.253 5.16522 88.8177 4.86 75.446C4.66878 70.9157 4.97326 66.3781 5.768 61.914C5.768 61.88 5.784 61.846 5.79 61.812C7.44926 52.7929 10.8492 44.1833 15.8 36.464Z" fill="#009688"/>
</svg>
