<svg width="80" height="110" viewBox="0 0 80 110" fill="none" xmlns="http://www.w3.org/2000/svg">
<path d="M18.9167 99H11.5834V91.6667C11.5834 90.6541 10.7625 89.8333 9.75002 89.8333C8.7375 89.8333 7.91669 90.6541 7.91669 91.6667V100.833C7.91669 101.846 8.7375 102.667 9.75002 102.667H18.9167C19.9292 102.667 20.75 101.846 20.75 100.833C20.75 99.8208 19.9292 99 18.9167 99Z" fill="#009688"/>
<path d="M79.4167 32.2172C79.4167 31.1864 79.127 30.1763 78.5807 29.3022L70.25 15.9738V1.83333V1.80583C70.2444 1.59365 70.2022 1.38403 70.1254 1.18616C70.0997 1.13666 70.0777 1.1 70.0539 1.04316C70.0312 0.984436 70.0055 0.926915 69.9769 0.870831C69.9109 0.771436 69.8354 0.678719 69.7514 0.593998C69.7312 0.571998 69.7184 0.549998 69.7 0.524331C69.5507 0.38343 69.3791 0.268207 69.1922 0.183331C69.1456 0.162333 69.0978 0.143971 69.0492 0.128331C68.8478 0.047843 68.6335 0.00436825 68.4167 -1.90735e-06H11.5833C11.3659 0.00434841 11.151 0.0478199 10.949 0.128331C10.8922 0.148498 10.8408 0.174165 10.7858 0.199831C10.6342 0.274234 10.4935 0.369244 10.3678 0.482165C10.3348 0.511498 10.2982 0.533498 10.2688 0.564665C10.1377 0.696822 10.0277 0.848305 9.94251 1.01383L7.60318 5.69433C7.12154 6.64579 7.08217 7.7608 7.49552 8.74385C7.90886 9.72691 8.73318 10.4788 9.75001 10.8002V15.9757L1.41935 29.304C0.872347 30.1771 0.582598 31.1868 0.583345 32.2172V104.5C0.583345 107.538 3.04578 110 6.08335 110H73.9167C76.9543 110 79.4167 107.538 79.4167 104.5V32.2172ZM13.4167 11H63.617C64.8034 10.9953 65.912 10.4088 66.5834 9.43066V14.6667H13.4167V11ZM65.4504 3.66666L63.617 7.33333H10.883L12.7163 3.66666H65.4504ZM6.08335 106.333C5.07082 106.333 4.25001 105.513 4.25001 104.5V33H13.4167C14.4292 33 15.25 32.1792 15.25 31.1667C15.25 30.1541 14.4292 29.3333 13.4167 29.3333H5.71668L12.5935 18.3333H65.1167L58.26 29.3022L58.238 29.3333H24.4167C23.4042 29.3333 22.5833 30.1541 22.5833 31.1667C22.5833 32.1792 23.4042 33 24.4167 33H57.4167V106.333H6.08335ZM73.9167 106.333H61.0834V32.2172C61.0834 31.8736 61.1799 31.5369 61.362 31.2455L68.4167 19.9595L75.4714 31.2455C75.6535 31.5369 75.75 31.8736 75.75 32.2172V104.5C75.75 105.513 74.9292 106.333 73.9167 106.333Z" fill="#009688"/>
<path d="M70.25 34.8333C70.25 33.8208 69.4292 33 68.4166 33C67.4041 33 66.5833 33.8208 66.5833 34.8333V93.5C66.5833 94.5125 67.4041 95.3333 68.4166 95.3333C69.4292 95.3333 70.25 94.5125 70.25 93.5V34.8333Z" fill="#009688"/>
<path d="M46.0628 53.5022C39.5692 47.0543 27.4692 48.6218 19.1 56.9855C14.5194 61.3031 11.8197 67.2484 11.5833 73.5387C11.4007 77.3952 12.8535 81.1499 15.5844 83.879C18.3153 86.6082 22.0709 88.0586 25.9273 87.8735C32.2353 87.6497 38.2063 84.9701 42.5667 80.4063C47.1456 76.0898 49.8451 70.1469 50.0833 63.8587C50.2013 60.0044 48.7505 56.2672 46.0628 53.5022ZM21.6887 59.5833C25.3547 55.7015 30.3854 53.3955 35.7192 53.152C38.5976 53.0552 41.3945 54.1172 43.4833 56.1C43.586 56.2027 43.6575 56.331 43.7565 56.4392C42.5654 57.1288 41.232 57.5358 39.8588 57.629C34.0791 58.079 29.4854 62.6665 29.0275 68.4457C28.8007 72.6084 25.4706 75.9297 21.3073 76.1457C19.4287 76.3031 17.6105 76.8862 15.9907 77.8507C15.4886 76.4737 15.2401 75.0171 15.2573 73.5515C15.5175 68.2398 17.822 63.2345 21.6887 59.5833ZM39.9817 77.8067C33.0315 84.7568 23.2562 86.3225 18.1962 81.29C18.0935 81.1855 18.022 81.0572 17.923 80.949C19.1138 80.2591 20.4475 79.8526 21.8207 79.761C27.5998 79.3095 32.1926 74.7228 32.652 68.9443C32.8805 64.7823 36.2096 61.4619 40.3722 61.2443C42.2508 61.0882 44.0692 60.5057 45.6888 59.5412C46.1911 60.9181 46.4395 62.3747 46.4222 63.8403C46.1605 69.1536 43.8525 74.1594 39.9817 77.8085V77.8067Z" fill="#009688"/>
</svg>
