<svg width="120" height="120" viewBox="0 0 120 120" fill="none" xmlns="http://www.w3.org/2000/svg">
<g clip-path="url(#clip0_146_40)">
<path d="M59.522 70.554C50.466 61.498 37.38 59.8 30.346 66.788C27.4408 69.779 25.8727 73.8203 26 77.988C26.2554 84.7891 29.1739 91.2173 34.126 95.886C38.8417 100.824 45.3021 103.721 52.126 103.958C56.2782 104.074 60.304 102.523 63.306 99.652C66.2104 96.6606 67.7779 92.6194 67.65 88.452C67.394 81.6506 64.4748 75.2224 59.522 70.554ZM36.954 93.058C32.777 89.1186 30.2852 83.7165 30 77.982C29.9825 76.4084 30.2494 74.8446 30.788 73.366C32.534 74.4004 34.4917 75.0261 36.514 75.196C41.0058 75.4295 44.5986 79.0128 44.844 83.504C45.3468 89.7533 50.3156 94.7111 56.566 95.2C58.041 95.2979 59.4742 95.7316 60.756 96.468C60.656 96.578 60.582 96.71 60.478 96.814C55.01 102.25 44.456 100.56 36.954 93.058ZM62.858 93.074C61.1124 92.0389 59.1545 91.4139 57.132 91.246C52.6387 91.0134 49.0445 87.4287 48.8 82.936C48.3008 76.6851 43.3317 71.7245 37.08 71.236C35.605 71.1367 34.172 70.7023 32.89 69.966C32.99 69.856 33.062 69.724 33.168 69.62C35.4206 67.4808 38.4372 66.3346 41.542 66.438C47.3035 66.7019 52.737 69.1939 56.696 73.388C60.8705 77.3269 63.3602 82.7275 63.644 88.46C63.6622 90.0328 63.3959 91.5959 62.858 93.074Z" fill="#009688"/>
<path d="M57.1 64C57.5661 64.2546 58.1144 64.3134 58.6239 64.1633C59.1335 64.0133 59.5623 63.6667 59.816 63.2C63.016 57.364 67.902 54 73.216 53.99C73.5347 53.99 73.8587 54.004 74.188 54.032C73.7833 55.9282 72.8968 57.6881 71.614 59.142C66.9069 64.6189 66.9069 72.7131 71.614 78.19C73.3955 80.1375 74.3713 82.6887 74.344 85.328C74.3823 87.958 73.4069 90.5018 71.62 92.432C69.3954 94.9684 68.1412 98.2108 68.08 101.584C68.0543 102.53 68.6953 103.365 69.616 103.584C70.7952 103.865 72.0039 104.003 73.216 103.996C84.696 103.976 94.016 91.862 93.998 76.996C94.018 63.822 86.782 52.636 76.798 50.396C75.6167 50.1335 74.4102 50.0007 73.2 50C66.482 50.02 60.164 54.24 56.3 61.286C56.046 61.7519 55.9876 62.2997 56.1376 62.8088C56.2877 63.3178 56.6339 63.7463 57.1 64ZM78.078 55C85.022 57.91 90.016 66.886 90 77C90.016 89.664 82.486 99.982 73.214 100C72.884 100 72.564 99.988 72.25 99.964C72.6522 98.0645 73.5389 96.3014 74.824 94.846C79.5294 89.3684 79.5294 81.2756 74.824 75.798C73.0404 73.8517 72.0637 71.2999 72.092 68.66C72.0537 66.03 73.0292 63.4862 74.816 61.556C76.4242 59.671 77.5444 57.4197 78.078 55Z" fill="#009688"/>
<path d="M15.832 61.21C14.986 65.9638 14.6621 70.7958 14.866 75.62C15.2284 90.265 22.5129 103.871 34.5 112.292C42.0485 117.331 50.924 120.014 60 120C79.1687 119.922 96.3071 108.039 103.104 90.116C104.997 84.2537 105.869 78.1096 105.68 71.952C105.335 63.1967 103.226 54.601 99.48 46.68C94.0451 35.2671 87.2903 24.5311 79.354 14.692C78.172 13.172 76.976 11.502 75.754 9.804C73.6423 6.72687 71.3517 3.77645 68.894 0.967999C68.1265 0.130458 66.9517 -0.201702 65.8593 0.109943C64.7668 0.421587 63.9441 1.32357 63.734 2.44C63.534 3.482 63.334 4.626 63.112 5.84C61.712 13.64 58.874 29.856 54.112 29.618C51.95 29.498 51.238 26.152 50.58 22.062C50.3237 20.4444 50.1561 18.8139 50.078 17.178C50.0164 15.8341 49.0649 14.6968 47.7529 14.399C46.441 14.1013 45.0917 14.7163 44.456 15.902C41.5704 21.4649 39.9608 27.601 39.744 33.864C39.6137 36.6528 39.704 39.4475 40.014 42.222C40.4962 44.6502 40.1571 47.1698 39.05 49.384C38.7998 49.7234 38.4144 49.9373 37.994 49.97C37.5498 50.037 37.0985 49.9054 36.76 49.61C34.684 47.908 34.16 41.87 33.976 39.892C33.7993 37.6847 33.7519 35.4689 33.834 33.256C33.8867 31.9277 33.0589 30.723 31.8 30.296C30.5579 29.8724 29.185 30.3148 28.424 31.384C22.1227 40.2526 17.8335 50.39 15.856 61.088C15.846 61.128 15.838 61.17 15.832 61.21ZM29.8 36.464C29.82 37.7813 29.8813 39.0393 29.984 40.238C30.408 45.038 31.244 50.26 34.216 52.7C35.3862 53.673 36.9047 54.1227 38.416 53.944C39.8919 53.7955 41.2436 53.0524 42.16 51.886C44.492 48.984 44.21 43.852 43.982 41.78C43.6956 39.2159 43.612 36.6332 43.732 34.056C43.9088 29.6468 44.8122 25.2969 46.406 21.182C46.472 21.708 46.546 22.232 46.632 22.756C47.308 26.956 48.328 33.302 53.882 33.61C62.03 34.044 64.834 18.81 67.042 6.548C67.1233 6.08933 67.204 5.64267 67.284 5.208C69.058 7.334 70.804 9.766 72.502 12.136C73.75 13.876 74.98 15.59 76.192 17.148C83.9353 26.7452 90.5276 37.2166 95.834 48.348C99.3566 55.7814 101.344 63.8489 101.676 72.068C101.854 77.7383 101.061 83.3973 99.33 88.8C93.1045 105.126 77.4727 115.937 60 116C51.7142 116.014 43.6111 113.565 36.72 108.964C25.7913 101.253 19.1652 88.8177 18.86 75.446C18.6688 70.9157 18.9733 66.3781 19.768 61.914C19.768 61.88 19.784 61.846 19.79 61.812C21.4493 52.7929 24.8492 44.1833 29.8 36.464Z" fill="#009688"/>
</g>
<defs>
<clipPath id="clip0_146_40">
<rect width="120" height="120" fill="white"/>
</clipPath>
</defs>
</svg>
