<svg width="110" height="110" viewBox="0 0 110 110" fill="none" xmlns="http://www.w3.org/2000/svg">
<g clip-path="url(#clip0_146_54)">
<path d="M33.9167 99H26.5834V91.6667C26.5834 90.6541 25.7625 89.8333 24.75 89.8333C23.7375 89.8333 22.9167 90.6541 22.9167 91.6667V100.833C22.9167 101.846 23.7375 102.667 24.75 102.667H33.9167C34.9292 102.667 35.75 101.846 35.75 100.833C35.75 99.8208 34.9292 99 33.9167 99Z" fill="#009688"/>
<path d="M94.4167 32.2172C94.4167 31.1864 94.127 30.1763 93.5807 29.3022L85.25 15.9738V1.83333V1.80583C85.2444 1.59365 85.2022 1.38403 85.1254 1.18616C85.0997 1.13666 85.0777 1.1 85.0539 1.04316C85.0312 0.984436 85.0055 0.926915 84.9769 0.870831C84.9109 0.771436 84.8354 0.678719 84.7514 0.593998C84.7312 0.571998 84.7184 0.549998 84.7 0.524331C84.5507 0.38343 84.3791 0.268207 84.1922 0.183331C84.1456 0.162333 84.0978 0.143971 84.0492 0.128331C83.8478 0.047843 83.6335 0.00436825 83.4167 -1.90735e-06H26.5833C26.3659 0.00434841 26.151 0.0478199 25.949 0.128331C25.8922 0.148498 25.8408 0.174165 25.7858 0.199831C25.6342 0.274234 25.4935 0.369244 25.3678 0.482165C25.3348 0.511498 25.2982 0.533498 25.2688 0.564665C25.1377 0.696822 25.0277 0.848305 24.9425 1.01383L22.6032 5.69433C22.1215 6.64579 22.0822 7.7608 22.4955 8.74385C22.9089 9.72691 23.7332 10.4788 24.75 10.8002V15.9757L16.4193 29.304C15.8723 30.1771 15.5826 31.1868 15.5833 32.2172V104.5C15.5833 107.538 18.0458 110 21.0833 110H88.9167C91.9543 110 94.4167 107.538 94.4167 104.5V32.2172ZM28.4167 11H78.617C79.8034 10.9953 80.912 10.4088 81.5834 9.43066V14.6667H28.4167V11ZM80.4504 3.66666L78.617 7.33333H25.883L27.7163 3.66666H80.4504ZM21.0833 106.333C20.0708 106.333 19.25 105.513 19.25 104.5V33H28.4167C29.4292 33 30.25 32.1792 30.25 31.1667C30.25 30.1541 29.4292 29.3333 28.4167 29.3333H20.7167L27.5935 18.3333H80.1167L73.26 29.3022L73.238 29.3333H39.4167C38.4042 29.3333 37.5833 30.1541 37.5833 31.1667C37.5833 32.1792 38.4042 33 39.4167 33H72.4167V106.333H21.0833ZM88.9167 106.333H76.0834V32.2172C76.0834 31.8736 76.1799 31.5369 76.362 31.2455L83.4167 19.9595L90.4714 31.2455C90.6535 31.5369 90.75 31.8736 90.75 32.2172V104.5C90.75 105.513 89.9292 106.333 88.9167 106.333Z" fill="#009688"/>
<path d="M85.25 34.8333C85.25 33.8208 84.4292 33 83.4166 33C82.4041 33 81.5833 33.8208 81.5833 34.8333V93.5C81.5833 94.5125 82.4041 95.3333 83.4166 95.3333C84.4292 95.3333 85.25 94.5125 85.25 93.5V34.8333Z" fill="#009688"/>
<path d="M61.0628 53.5022C54.5692 47.0543 42.4692 48.6218 34.1 56.9855C29.5194 61.3031 26.8197 67.2484 26.5833 73.5387C26.4007 77.3952 27.8535 81.1499 30.5844 83.879C33.3153 86.6082 37.0709 88.0586 40.9273 87.8735C47.2353 87.6497 53.2063 84.9701 57.5667 80.4063C62.1456 76.0898 64.8451 70.1469 65.0833 63.8587C65.2013 60.0044 63.7505 56.2672 61.0628 53.5022ZM36.6887 59.5833C40.3547 55.7015 45.3854 53.3955 50.7192 53.152C53.5976 53.0552 56.3945 54.1172 58.4833 56.1C58.586 56.2027 58.6575 56.331 58.7565 56.4392C57.5654 57.1288 56.232 57.5358 54.8588 57.629C49.0791 58.079 44.4854 62.6665 44.0275 68.4457C43.8007 72.6084 40.4706 75.9297 36.3073 76.1457C34.4287 76.3031 32.6105 76.8862 30.9907 77.8507C30.4886 76.4737 30.2401 75.0171 30.2573 73.5515C30.5175 68.2398 32.822 63.2345 36.6887 59.5833ZM54.9817 77.8067C48.0315 84.7568 38.2562 86.3225 33.1962 81.29C33.0935 81.1855 33.022 81.0572 32.923 80.949C34.1138 80.2591 35.4475 79.8526 36.8207 79.761C42.5998 79.3095 47.1926 74.7228 47.652 68.9443C47.8805 64.7823 51.2096 61.4619 55.3722 61.2443C57.2508 61.0882 59.0692 60.5057 60.6888 59.5412C61.1911 60.9181 61.4395 62.3747 61.4222 63.8403C61.1605 69.1536 58.8525 74.1594 54.9817 77.8085V77.8067Z" fill="#009688"/>
</g>
<defs>
<clipPath id="clip0_146_54">
<rect width="110" height="110" fill="white"/>
</clipPath>
</defs>
</svg>
