<svg width="48" height="48" viewBox="0 0 48 48" fill="none" xmlns="http://www.w3.org/2000/svg">
<g clip-path="url(#clip0_143_58)">
<path d="M47.7631 24.0368L42.1952 17.6805C42.0136 17.4733 41.7515 17.3543 41.476 17.3543H36.8396V13.4288C36.8396 12.9007 36.4114 12.4727 35.8834 12.4727H16.1352C15.6072 12.4727 15.1791 12.9007 15.1791 13.4288V14.719H5.98295C5.45495 14.719 5.02679 15.1471 5.02679 15.6752C5.02679 16.2032 5.45495 16.6313 5.98295 16.6313H15.1791V29.026H9.64351C9.11551 29.026 8.68736 29.4541 8.68736 29.9822C8.68736 30.5102 9.11551 30.9383 9.64351 30.9383H15.1791V31.91C15.1791 32.4381 15.6072 32.8662 16.1352 32.8662H18.131C18.5515 34.398 19.9553 35.527 21.6188 35.527C23.2823 35.527 24.6861 34.398 25.1066 32.8662H37.865V32.8661C38.2855 34.3979 39.6893 35.5269 41.3528 35.5269C43.0163 35.5269 44.4201 34.3979 44.8407 32.8661H47.044C47.572 32.8661 48.0001 32.438 48.0001 31.9099V24.6667C48 24.4351 47.9157 24.2111 47.7631 24.0368ZM21.6188 33.6147C20.6788 33.6147 19.9142 32.85 19.9142 31.91C19.9142 30.9701 20.6788 30.2054 21.6188 30.2054C22.5587 30.2054 23.3234 30.9701 23.3234 31.91C23.3234 32.85 22.5587 33.6147 21.6188 33.6147ZM25.1065 30.9539C24.686 29.4221 23.2821 28.2931 21.6186 28.2931C19.9551 28.2931 18.5514 29.4221 18.1308 30.9539H17.0912V14.3849H34.9269V30.9539H25.1065ZM41.3526 33.6147C40.4127 33.6147 39.648 32.85 39.648 31.91C39.648 30.9701 40.4127 30.2054 41.3526 30.2054C42.2925 30.2054 43.0572 30.9701 43.0572 31.91C43.0572 32.85 42.2926 33.6147 41.3526 33.6147ZM46.0877 30.9539H44.8405C44.42 29.4221 43.0161 28.2931 41.3526 28.2931C39.6891 28.2931 38.2854 29.4221 37.8648 30.9539H36.8393V19.2666H41.0422L46.0876 25.0263V30.9539H46.0877Z" fill="#009688"/>
<path d="M6.49326 29.0259H5.98307C5.45507 29.0259 5.02692 29.4539 5.02692 29.982C5.02692 30.5101 5.45507 30.9382 5.98307 30.9382H6.49326C7.02126 30.9382 7.44942 30.5101 7.44942 29.982C7.44942 29.4539 7.02136 29.0259 6.49326 29.0259Z" fill="#009688"/>
<path d="M11.2031 21.7759H0.956156C0.428156 21.7759 0 22.2039 0 22.732C0 23.2601 0.428156 23.6882 0.956156 23.6882H11.2031C11.7311 23.6882 12.1593 23.2601 12.1593 22.732C12.1593 22.2039 11.7311 21.7759 11.2031 21.7759Z" fill="#009688"/>
</g>
<defs>
<clipPath id="clip0_143_58">
<rect width="48" height="48" fill="white"/>
</clipPath>
</defs>
</svg>
